<?xml version="1.0" standalone="no"?>
<!DOCTYPE svg PUBLIC "-//W3C//DTD SVG 20010904//EN"
 "http://www.w3.org/TR/2001/REC-SVG-20010904/DTD/svg10.dtd">
<svg version="1.0" xmlns="http://www.w3.org/2000/svg"
 width="703.000000pt" height="93.000000pt" viewBox="0 0 703.000000 93.000000"
 preserveAspectRatio="xMidYMid meet">
<metadata>
Created by potrace 1.16, written by Peter Selinger 2001-2019
</metadata>
<g transform="translate(0.000000,93.000000) scale(0.100000,-0.100000)"
fill="#000000" stroke="none">
<path d="M396 792 c-186 -1 -284 -6 -293 -13 -17 -14 -17 -40 0 -63 12 -17 32
-18 213 -18 109 0 216 -4 236 -8 23 -5 41 -4 49 4 6 6 -42 -43 -107 -110 -65
-67 -122 -119 -126 -117 -5 2 -8 0 -8 -5 0 -6 -65 -75 -145 -155 -114 -113
-144 -148 -139 -163 15 -43 24 -44 345 -44 266 0 310 2 323 16 18 17 20 42 6
64 -8 12 -51 16 -247 20 -131 3 -228 7 -217 8 16 2 20 7 17 25 -4 19 36 63
231 255 179 175 236 237 236 255 0 52 -10 53 -374 49z m-136 -592 c0 -5 -2
-10 -4 -10 -3 0 -8 5 -11 10 -3 6 -1 10 4 10 6 0 11 -4 11 -10z"/>
<path d="M3510 790 c-164 -4 -219 -8 -230 -19 -13 -11 -15 -61 -12 -325 3
-300 4 -312 24 -328 18 -16 48 -18 298 -18 240 0 281 2 294 16 20 20 20 48 0
65 -17 14 -68 16 -341 18 l-173 1 0 244 c0 218 2 245 17 250 9 4 124 6 255 5
247 -1 268 2 268 40 0 54 -39 59 -400 51z"/>
<path d="M6241 778 c-15 -25 -14 -53 3 -68 10 -7 59 -12 138 -13 l123 -2 3
-284 c1 -189 6 -289 13 -298 17 -20 56 -15 74 10 13 19 15 60 15 282 0 143 0
266 0 273 0 9 29 12 109 12 127 0 156 8 163 44 11 55 9 55 -324 58 -282 3
-307 2 -317 -14z"/>
<path d="M935 766 c-18 -27 -10 -55 25 -86 9 -8 70 -82 136 -164 l119 -150 5
-125 5 -126 28 -9 c54 -19 62 -3 65 131 l3 120 159 191 c88 105 160 197 160
204 0 23 -22 38 -54 38 -27 -1 -43 -15 -116 -102 -157 -187 -185 -218 -197
-218 -12 0 -68 64 -145 165 -73 96 -132 155 -156 155 -12 0 -29 -11 -37 -24z"/>
<path d="M1762 778 c-17 -17 -17 -649 0 -666 17 -17 54 -15 72 4 14 13 16 54
16 298 l0 284 209 1 c115 1 221 -1 235 -5 l27 -6 -2 -99 -1 -99 -127 -1 c-69
-1 -138 -2 -152 -3 -52 -2 -76 -47 -43 -80 13 -13 44 -16 180 -16 242 0 243 1
244 212 0 204 30 188 -349 188 -218 0 -300 -3 -309 -12z"/>
<path d="M2529 773 c-11 -13 -14 -77 -12 -336 2 -339 2 -337 50 -337 40 0 53
25 53 104 0 47 5 77 13 84 11 9 310 135 397 167 l35 13 4 -172 c1 -99 7 -176
13 -183 13 -16 60 -17 76 -1 17 17 17 649 0 666 -17 17 -63 15 -78 -2 -7 -9
-12 -53 -13 -109 l-2 -94 -40 -15 c-22 -9 -112 -46 -200 -83 -88 -37 -168 -68
-177 -68 -10 -1 -18 -6 -18 -11 0 -5 -3 -6 -7 -2 -5 4 -7 93 -5 198 2 125 0
188 -7 184 -5 -4 -12 -2 -16 4 -10 16 -51 12 -66 -7z"/>
<path d="M4012 778 c-17 -17 -17 -649 0 -666 16 -16 63 -15 77 1 7 9 12 109
13 298 l3 284 233 3 232 2 0 -105 0 -105 -153 0 c-166 0 -177 -3 -177 -53 0
-24 19 -47 108 -131 217 -207 216 -206 245 -206 35 0 67 16 67 34 0 8 -54 62
-120 120 -66 59 -119 112 -117 119 1 8 34 14 99 17 87 4 99 8 120 30 22 23 23
32 23 178 0 150 -1 154 -24 173 -22 18 -43 19 -320 19 -218 0 -300 -3 -309
-12z"/>
<path d="M4780 771 c-15 -29 -14 -643 2 -659 14 -14 47 -15 68 -2 13 8 15 48
15 256 0 190 3 248 13 252 6 2 10 8 7 13 -4 5 1 6 10 3 9 -4 14 -9 11 -11 -3
-3 4 -15 16 -27 11 -11 32 -39 46 -61 14 -22 28 -42 32 -45 3 -3 26 -34 51
-70 24 -36 47 -67 50 -70 4 -3 17 -21 30 -40 48 -70 143 -195 153 -202 6 -4
30 -8 53 -8 33 0 46 5 62 26 20 26 21 38 21 329 0 287 -1 303 -20 320 -22 20
-64 14 -73 -10 -4 -8 -7 -134 -8 -280 0 -146 -2 -265 -4 -265 -1 0 -25 32 -51
70 -27 39 -70 101 -97 138 -26 37 -55 78 -65 92 -40 59 -166 227 -185 248 -28
30 -121 32 -137 3z m100 -105 c8 -11 10 -17 3 -13 -7 4 -13 0 -16 -10 -3 -10
-5 -3 -6 16 0 19 0 32 2 30 1 -2 9 -13 17 -23z"/>
<path d="M5532 778 c-9 -9 -12 -97 -12 -335 0 -308 1 -323 19 -333 27 -14 565
-14 592 0 22 12 26 64 7 77 -7 4 -51 8 -98 8 -47 1 -160 2 -252 3 l-167 2 -1
244 c-1 225 1 244 17 251 10 3 122 6 248 4 127 -1 238 2 247 5 25 11 30 36 13
62 l-15 24 -293 0 c-215 0 -296 -3 -305 -12z"/>
<path d="M3492 478 c-16 -16 -15 -40 2 -63 12 -17 30 -19 180 -20 182 -1 206
5 206 50 0 14 -8 29 -19 35 -29 15 -354 13 -369 -2z"/>
<path d="M5742 478 c-17 -17 -15 -45 6 -66 16 -16 36 -18 190 -16 178 3 202 8
202 44 0 48 -1 48 -198 50 -137 0 -191 -3 -200 -12z"/>
<path d="M5295 260 c3 -5 8 -10 11 -10 2 0 4 5 4 10 0 6 -5 10 -11 10 -5 0 -7
-4 -4 -10z"/>
</g>
</svg>
