<?xml version="1.0" standalone="no"?>
<!DOCTYPE svg PUBLIC "-//W3C//DTD SVG 20010904//EN"
 "http://www.w3.org/TR/2001/REC-SVG-20010904/DTD/svg10.dtd">
<svg version="1.0" xmlns="http://www.w3.org/2000/svg"
 width="703.000000pt" height="93.000000pt" viewBox="0 0 703.000000 93.000000"
 preserveAspectRatio="xMidYMid meet">
<metadata>
Created by potrace 1.16, written by Peter Selinger 2001-2019
</metadata>
<g transform="translate(0.000000,93.000000) scale(0.100000,-0.100000)"
fill="#000000" stroke="none">
<path d="M0 465 l0 -465 3515 0 3515 0 0 465 0 465 -3515 0 -3515 0 0 -465z
m758 312 c36 -28 15 -55 -224 -289 -195 -192 -235 -236 -231 -255 3 -18 -1
-23 -17 -25 -11 -1 86 -5 217 -8 196 -4 239 -8 247 -20 14 -22 12 -47 -6 -64
-13 -14 -57 -16 -323 -16 -321 0 -330 1 -345 44 -5 15 25 50 139 163 80 80
145 149 145 155 0 5 3 7 8 5 4 -2 61 50 126 117 65 67 113 116 107 110 -8 -8
-26 -9 -49 -4 -20 4 -127 8 -236 8 -181 0 -201 1 -213 18 -17 23 -17 49 0 63
9 7 107 12 293 13 295 3 341 1 362 -15z m3140 -5 c6 -9 12 -23 12 -33 0 -38
-21 -41 -268 -40 -131 1 -246 -1 -255 -5 -15 -5 -17 -32 -17 -250 l0 -244 173
-1 c273 -2 324 -4 341 -18 20 -17 20 -45 0 -65 -13 -14 -54 -16 -294 -16 -250
0 -280 2 -298 18 -20 16 -21 28 -24 328 -3 264 -1 314 12 325 11 11 66 15 230
19 288 7 372 3 388 -18z m2978 3 c17 -23 5 -65 -23 -76 -13 -5 -74 -9 -134 -9
-80 0 -109 -3 -109 -12 0 -7 0 -130 0 -273 0 -222 -2 -263 -15 -282 -18 -25
-57 -30 -74 -10 -7 9 -12 109 -13 298 l-3 284 -123 2 c-79 1 -128 6 -138 13
-17 15 -18 43 -3 68 10 16 35 17 317 14 258 -2 309 -5 318 -17z m-5838 -32
c24 -27 65 -75 90 -108 77 -101 133 -165 145 -165 12 0 40 31 197 218 73 87
89 101 116 102 32 0 54 -15 54 -38 0 -7 -72 -99 -160 -204 l-159 -191 -3 -120
c-3 -134 -11 -150 -65 -131 l-28 9 -5 126 -5 125 -119 150 c-66 82 -127 156
-136 164 -35 31 -43 59 -25 86 24 37 53 30 103 -23z m1356 26 c26 -20 26 -20
26 -167 -1 -211 -2 -212 -244 -212 -136 0 -167 3 -180 16 -33 33 -9 78 43 80
14 1 83 2 152 3 l127 1 1 99 2 99 -27 6 c-14 4 -120 6 -235 5 l-209 -1 0 -284
c0 -244 -2 -285 -16 -298 -18 -19 -55 -21 -72 -4 -17 17 -17 649 0 666 9 9 91
12 309 12 285 0 297 -1 323 -21z m201 11 c4 -6 11 -8 16 -4 7 4 9 -59 7 -184
-2 -105 0 -194 5 -198 4 -4 7 -3 7 2 0 5 8 10 18 11 9 0 89 31 177 68 88 37
178 74 200 83 l40 15 2 94 c1 56 6 100 13 109 15 17 61 19 78 2 17 -17 17
-649 0 -666 -16 -16 -63 -15 -76 1 -6 7 -12 84 -13 183 l-4 172 -35 -13 c-87
-32 -386 -158 -397 -167 -8 -7 -13 -37 -13 -84 0 -79 -13 -104 -53 -104 -48 0
-48 -2 -50 337 -2 344 -1 353 49 353 12 0 26 -5 29 -10z m2046 -9 c23 -19 24
-23 24 -173 0 -146 -1 -155 -23 -178 -21 -22 -33 -26 -120 -30 -65 -3 -98 -9
-99 -17 -2 -7 51 -60 117 -119 66 -58 120 -112 120 -120 0 -18 -32 -34 -67
-34 -29 0 -28 -1 -245 206 -89 84 -108 107 -108 131 0 50 11 53 177 53 l153 0
0 105 0 105 -232 -2 -233 -3 -3 -284 c-1 -189 -6 -289 -13 -298 -14 -16 -61
-17 -77 -1 -17 17 -17 649 0 666 9 9 91 12 309 12 277 0 298 -1 320 -19z m276
-3 c19 -21 145 -189 185 -248 10 -14 39 -55 65 -92 27 -37 70 -99 97 -138 26
-38 50 -70 51 -70 2 0 4 119 4 265 1 146 4 272 8 280 9 24 51 30 73 10 19 -17
20 -33 20 -320 0 -291 -1 -303 -21 -329 -16 -21 -29 -26 -62 -26 -23 0 -47 4
-53 8 -10 7 -105 132 -153 202 -13 19 -26 37 -30 40 -3 3 -26 34 -50 70 -25
36 -48 67 -51 70 -4 3 -18 23 -32 45 -14 22 -35 50 -46 61 -12 12 -19 24 -16
27 3 2 -2 7 -11 11 -9 3 -14 2 -10 -3 3 -5 -1 -11 -7 -13 -10 -4 -13 -62 -13
-252 0 -208 -2 -248 -15 -256 -21 -13 -54 -12 -68 2 -16 16 -17 630 -2 659 16
29 109 27 137 -3z m1228 -2 c17 -26 12 -51 -13 -62 -9 -3 -120 -6 -247 -5
-126 2 -238 -1 -248 -4 -16 -7 -18 -26 -17 -251 l1 -244 167 -2 c92 -1 205 -2
252 -3 47 0 91 -4 98 -8 19 -13 15 -65 -7 -77 -27 -14 -565 -14 -592 0 -18 10
-19 25 -19 333 0 238 3 326 12 335 9 9 90 12 305 12 l293 0 15 -24z m-2284
-286 c11 -6 19 -21 19 -35 0 -45 -24 -51 -206 -50 -150 1 -168 3 -180 20 -17
23 -18 47 -2 63 15 15 340 17 369 2z m2273 -7 c10 -25 7 -50 -8 -63 -10 -8
-71 -12 -188 -14 -154 -2 -174 0 -190 16 -10 10 -18 26 -18 36 0 39 17 43 212
42 156 -1 187 -4 192 -17z m-824 -213 c0 -5 -2 -10 -4 -10 -3 0 -8 5 -11 10
-3 6 -1 10 4 10 6 0 11 -4 11 -10z"/>
<path d="M245 200 c3 -5 8 -10 11 -10 2 0 4 5 4 10 0 6 -5 10 -11 10 -5 0 -7
-4 -4 -10z"/>
<path d="M4861 659 c1 -19 3 -26 6 -16 3 10 9 14 16 10 7 -4 5 2 -3 13 -8 10
-16 21 -17 23 -2 2 -2 -11 -2 -30z"/>
</g>
</svg>
